<?xml version="1.0" encoding="utf-8"?>
<!-- Generator: Adobe Illustrator 19.0.0, SVG Export Plug-In . SVG Version: 6.00 Build 0)  -->
<svg version="1.1" xmlns="http://www.w3.org/2000/svg" xmlns:xlink="http://www.w3.org/1999/xlink" x="0px" y="0px"
	 viewBox="0 0 270 227" style="enable-background:new 0 0 270 227;" xml:space="preserve">
<style type="text/css">
	.st0{fill:#848484;}
	.st1{fill:#DADADA;}
	.st2{fill:#515151;}
	.st3{fill:#9D9D9D;}
	.st4{fill:#9C6F0C;}
	.st5{fill:#986A06;}
	.st6{fill:#986B07;}
	.st7{fill:#858585;}
	.st8{fill:#FCAE05;}
	.st9{fill:#525252;}
	.st10{fill:#535353;}
	.st11{fill:#FCFCFC;}
	.st12{fill:#181818;}
	.st13{fill:#171717;}
</style>
<g id="Layer_3">
</g>
<g id="Layer_2">
	<g id="Layer_4">
		<rect x="198" y="49.5" class="st0" width="4.5" height="5.5"/>
		<rect x="55.3" y="173.2" class="st1" width="4.1" height="5.3"/>
	</g>
	<path class="st2" d="M42.9,139.3c-0.1-11.8,0.1-23.6,4.8-34.8c4.5-10.6,11.4-19.1,21.7-24.4c2.8-1.5,4.5-3.3,5.9-6.2
		c4.8-10,12.8-12.8,22-6.9c6.7,4.4,12.4,0.1,18.6-0.3c1.4-0.1,1.2-1.4,0.3-2.2c-2.7-2.4-4.4-6-8.3-6.9c-0.6-2.1-2.3-3.4-4-4.6
		c-0.4-0.5-0.8-1.1-1.3-1.4c-1.8-1.3-3.9-2.8-2.2-5.1c2-2.6,4.1-0.7,5.9,0.7c1.7,1.3,3,3.1,5.4,3.3c0.4,1.7,1.7,2.7,3.1,3.6
		c2.4,3.6,6,6.1,8.8,9.4c1.2,1.5,2.5,1.1,4,0.8c7.8-1.7,15.6-3.4,23.4-4.8c2-0.4,3.2-1.3,4.2-3c1.6-2.8,3.6-5.2,6.3-7
		c5.7-3.9,11.6-3.6,16.9,0.9c6.3,5.3,6.3,5.3,15,4.4c-3.8-7.9-7.4-15.7-11.1-23.3c-2.4-4.9-2-6.3,3.1-8.2
		c10.3-3.9,10.9-3.7,14.2,6.6c2.4,7.2,4.9,14.4,7,21.7c0.8,2.7,1.8,4.1,4.9,4.4c6.1,0.6,10.8,3.9,14.6,8.5
		c9.2,11.1,14.5,24,17.8,37.9c0.5,2,0.4,4.3,2,6c-0.3,2.3,0.4,4.4,1,6.6c0.5,7.7,2.3,15.2,2.3,22.9c0,2.5-0.8,5,0.8,7.3
		c-0.7,7.9-0.4,15.8-2.5,23.6c-2.7,0.2-4.3,2.5-6.6,3.4c-14.6,6.8-29.7,12.3-45.3,16.3c-30.3,7.9-61,12.1-92.4,9.8
		c-4.8-0.4-9.6-2.6-14.7-0.3c-4.5,2.1-9.4-0.3-11.1-4.6c-1.8-4.6,0.1-9.7,4.4-11.3c4.1-1.6,10.8,0.8,11.6,5.1c0.8,4.7,3.7,4.7,7,5
		c3.1,0.3,6.3,0.8,9.4,0.9c31.9,1.7,63.1-2.8,93.6-12.1c11.6-3.6,23.1-7.7,33.7-13.6c2.5-1.4,5.6-2.7,6-6.2
		c0.7-5.3,1.4-10.6,0.6-15.9c0.9-3.5-0.4-6.9-0.6-10.4c-0.7-17.6-5.2-34.3-11.6-50.6c-2.5-6.4-6.6-11.9-11-17.1
		c-2.5-3-6-4.6-9.9-5.2c-5.6-0.9-11.2-1.1-16.9-1c-7.5,0.1-7.5,0-5.8,7.5c1.3,5.6-0.1,7.8-5.7,7.3c-8.8-0.8-17.5-0.8-26.3,0
		c-5,0.5-6.7-1.5-5.7-6.2c0.9-3.9-0.8-3.9-3.5-3.4c-11.4,2.3-22.7,4.6-34,7.1c-5.8,1.2-5.8,1.3-2.6,6.5c1.8,2.9,3.4,6.1-1.2,7.6
		c-11.1,3.5-22,7.5-32.6,12.2c-3.3,1.5-5.4-0.1-5.4-4c0.1-2.6,0-5.2,0-8.5c-8.1,4.2-13.4,10.2-16.7,17.8
		c-4.7,10.9-5.7,22.4-5.2,34.2C47,139.1,44.9,139.2,42.9,139.3z M199.9,52.1c0.2,0.4,0.4,0.9,0.5,1.3c0.1-0.1,0.4-0.3,0.4-0.3
		c-0.2-0.4-0.4-0.8-0.7-1.2c-1.2-8-4.6-15.2-7.1-22.8c-0.5-1.4-1.4-2.3-3-1.6c-1.1,0.5-2.3,1-1.5,2.5
		C192.4,37.4,194.6,45.5,199.9,52.1z M77,88.1c-0.2,3,0.1,4.1,2.7,3.1c6.9-2.8,13.9-5.4,21-7.9c3.1-1.1,2.5-2.7,1.2-4.4
		c-3.1-4.1-6.8-7-12-8.2c-3.4-0.8-5.6,0.2-7.4,2.6C78.9,77.8,78.1,83.5,77,88.1z M168.8,69c3,0,6-0.1,9,0c2.6,0.1,3.6-0.8,3-3.6
		c-1.4-6-6.1-12.2-10.3-12.3c-6.5-0.3-8.9,4.8-11.3,9.6c-0.4,0.9-0.7,1.9-1.1,2.8c-1,2.4-0.8,3.8,2.3,3.6
		C163.1,68.9,166,69,168.8,69z M88,190c-0.2-1.7-1.5-2.7-3.3-2.7c-1.6-0.1-2.3,1.3-2.3,2.7c0,1.6,0.9,2.9,2.6,3
		C86.9,193.1,87.8,192,88,190z"/>
	<path class="st3" d="M240.9,172.1c2.3-0.8,4-3.1,6.6-3.4c-1.8,16.1-9.1,27.8-25.1,33.8c-21.4,8-43.5,12.8-66.1,15.7
		c-11.6,1.5-23.2,1.7-34.8,2.5c-11.6,0.7-23.4-0.1-34.8-2.1c-19-3.3-30.7-15.3-36.5-33.5c-0.6-1.9-0.9-3.9-1.4-5.8
		c1.9-0.6,3.8-1.1,5.8-1.7c3.5,17.9,13.8,29.9,31.5,34.8c9,2.5,18.4,1.8,27.7,2.4c15.1,0.9,30.1-0.6,45.1-2.8
		c19.2-2.9,38.1-6.5,56.4-13.2C228.3,194,239.1,187.4,240.9,172.1z"/>
	<path class="st2" d="M33.8,143.3c-5.3-16.8-8.1-34.2-12.6-51.2c-3.4-12.8-6.1-25.9-9.5-38.7c-1.2-4.3,0.2-6,3.7-7.7
		c11.9-5.8,12.1-5.4,13.8,7.7c3.7,28.8,6.8,57.8,12.7,86.3C39.1,140.9,36.4,142.1,33.8,143.3z M27.1,91.9c0.3,0,0.6,0.1,0.9,0.1
		c0-1,0.1-2,0-2.9c-1.7-12.3-3.3-24.6-5-36.9c-0.1-1.1-0.4-2.1-1.7-2c-1.4,0.1-2.8,0.6-3.1,2.1c-0.2,1.1-0.1,2.3,0.2,3.4
		C21.2,67.8,24.2,79.8,27.1,91.9z"/>
	<path class="st4" d="M115,54c-1.4-0.9-2.7-1.9-3.1-3.6c4.7-5.1,7.2-11.1,6.7-18.1c-0.7-9-6.7-13.9-14.3-16.9
		c-8.3-3.4-15.8-0.7-22.1,4.9c-6.6,5.9-7.6,16.5-2.9,24.3C84.4,53,94,56.3,104.1,53c1.7,1.2,3.4,2.5,4,4.6
		c-10.9,3.5-21.2,3.2-29.6-5.4c-7.9-8-9.9-17.9-5.2-28C77.8,14.2,86,8.6,97.4,8.7c10.2,0,21.7,7.7,25.2,16.8
		C126.2,35.1,122.9,47.2,115,54z"/>
	<path class="st5" d="M33.8,143.3c2.7-1.2,5.3-2.4,8-3.6c0.4-0.1,0.8-0.3,1.1-0.4c2-0.1,4.1-0.2,6.1-0.3c3.8,3.2,6.1,7.3,7.9,11.9
		c3,7.5,2,15.4,2.2,23.2l0,0c-0.7,0.1-0.9,0.5-1,1.1c-1.1,0.8-2.3,1.6-3.4,2.5c-1.9,0.6-3.8,1.1-5.8,1.7c-2.5-0.2-5-0.2-7.4-0.7
		c-13.6-3.2-19.2-18.2-11.4-30C31.3,146.8,32.6,145,33.8,143.3z M53.1,164.8c0.1-5.3-1.3-10.1-3.1-14.7c-1.8-4.5-4.7-5.4-9.1-3.4
		c-8.2,3.7-10.8,15.6-5,22.4c2.9,3.4,10.1,5.3,14.3,3.6C54.1,171.2,52.8,167.6,53.1,164.8z"/>
	<path class="st6" d="M250,145.2c-1.6-2.3-0.7-4.9-0.8-7.3c2.3,0.7,4.2,0,5.7-1.9c5.3-6.6,0.3-19.7-8-21c-0.5-2.2-1.2-4.3-1-6.6
		c13,2.2,19.9,12.5,16.7,25.2C261,140.1,256.9,144.2,250,145.2z"/>
	<path class="st1" d="M54.7,177.6c1.1-0.8,2.3-1.6,3.4-2.5c0.3-0.4,0.7-0.8,1-1.1c0,0,0,0,0,0c7.1-2.1,10.9-7.8,14.9-13.3
		c8.4,15.8,21.6,23.4,39.5,22.1c12.1-0.9,22.7-4.9,29.7-15.5c11.1-16.7,4-49.2-20.3-56.3c0.8-2.1,2.8-2.7,4.5-3.7
		c8.9-4.9,18.4-7.2,28.6-6.4c-5.4,8.3-8.5,17.4-7.6,27.3c1.4,14.9,10.4,24.4,23.3,30.6c16.6,7.8,43.4,5.7,52.1-19
		c6.5,2,12.6,5.7,19.8,5.5c0.8,5.3,0.1,10.6-0.6,15.9c-0.4,3.5-3.5,4.8-6,6.2c-10.7,5.9-22.1,10.1-33.7,13.6
		c-30.5,9.3-61.6,13.8-93.6,12.1c-3.2-0.2-6.3-0.6-9.4-0.9c-3.3-0.3-6.1-0.4-7-5c-0.8-4.3-7.5-6.7-11.6-5.1
		c-4.2,1.7-6.2,6.7-4.4,11.3c1.7,4.3,6.6,6.6,11.1,4.6c5.1-2.3,9.9-0.1,14.7,0.3c31.4,2.4,62.1-1.9,92.4-9.8
		c15.6-4.1,30.7-9.5,45.3-16.3c-1.8,15.3-12.6,21.9-25.5,26.7c-18.3,6.7-37.3,10.3-56.4,13.2c-15,2.2-30,3.7-45.1,2.8
		c-9.2-0.5-18.7,0.1-27.7-2.4C68.4,207.5,58.2,195.6,54.7,177.6z"/>
	<path class="st7" d="M156.1,101c-10.2-0.8-19.7,1.5-28.6,6.4c-1.7,0.9-3.7,1.6-4.5,3.7c-13.6-4.6-26.3-2.2-37.5,6.3
		c-11,8.4-13.9,20.4-12.6,33.6c0.3,3.3,0.8,6.5,1.1,9.8c-4.1,5.4-7.9,11.2-14.9,13.3c-0.2-7.8,0.8-15.6-2.2-23.2
		c-1.8-4.5-4.1-8.7-7.9-11.9c-0.5-11.7,0.5-23.3,5.2-34.2c3.3-7.6,8.6-13.6,16.7-17.8c0,3.3,0,5.9,0,8.5c-0.1,3.9,2,5.5,5.4,4
		c10.6-4.8,21.5-8.8,32.6-12.2c4.6-1.4,3-4.7,1.2-7.6c-3.2-5.2-3.2-5.3,2.6-6.5c11.3-2.4,22.7-4.7,34-7.1c2.7-0.6,4.4-0.6,3.5,3.4
		c-1.1,4.7,0.7,6.7,5.7,6.2c8.8-0.8,17.5-0.8,26.3,0c5.6,0.5,7-1.7,5.7-7.3c-1.7-7.5-1.7-7.4,5.8-7.5c5.7-0.1,11.3,0.2,16.9,1
		c3.9,0.6,7.4,2.2,9.9,5.2c4.4,5.2,8.5,10.7,11,17.1c6.3,16.3,10.9,33,11.6,50.6c0.1,3.5,1.5,6.9,0.6,10.4
		c-7.1,0.2-13.2-3.5-19.8-5.5c2.5-5.3,2.1-11,2.1-16.6c0.1-22.8-23.2-43-47.2-36.7C169.5,88.9,162.6,94.5,156.1,101z"/>
	<path class="st8" d="M104.1,53c-10,3.3-19.6,0.1-24.8-8.4c-4.7-7.8-3.7-18.4,2.9-24.3c6.3-5.7,13.8-8.3,22.1-4.9
		c7.6,3.1,13.5,8,14.3,16.9c0.6,7-2,13-6.7,18.1c-2.4-0.2-3.7-2-5.4-3.3c-1.8-1.4-3.9-3.3-5.9-0.7c-1.8,2.4,0.4,3.8,2.2,5.1
		C103.3,51.9,103.6,52.5,104.1,53z"/>
	<path class="st0" d="M77,88.1c1.1-4.6,1.9-10.2,5.5-14.9c1.8-2.4,4-3.4,7.4-2.6c5.2,1.3,9,4.2,12,8.2c1.3,1.8,1.9,3.4-1.2,4.4
		c-7.1,2.4-14,5.1-21,7.9C77.2,92.2,76.9,91,77,88.1z"/>
	<path class="st7" d="M168.8,69c-2.8,0-5.7-0.1-8.5,0c-3.1,0.2-3.3-1.2-2.3-3.6c0.4-0.9,0.7-1.9,1.1-2.8c2.4-4.8,4.8-9.9,11.3-9.6
		c4.2,0.2,8.9,6.3,10.3,12.3c0.6,2.8-0.3,3.7-3,3.6C174.8,68.9,171.8,69,168.8,69z"/>
	<path class="st8" d="M247,114.9c8.3,1.3,13.3,14.4,8,21c-1.5,1.8-3.4,2.6-5.7,1.9C249.3,130.1,247.5,122.6,247,114.9z"/>
	<path class="st0" d="M199.9,52.1c-5.3-6.6-7.5-14.7-11.3-22c-0.8-1.6,0.3-2,1.5-2.5c1.7-0.7,2.6,0.2,3,1.6
		c2.5,7.5,5.9,14.8,7.1,22.8L199.9,52.1z"/>
	<path class="st1" d="M88,190c-0.2,2-1.1,3.1-2.9,3c-1.7-0.1-2.6-1.4-2.6-3c0-1.4,0.7-2.7,2.3-2.7C86.5,187.3,87.8,188.3,88,190z"/>
	<path class="st0" d="M27.1,91.9c-2.9-12.1-5.9-24.1-8.7-36.2c-0.3-1.1-0.4-2.3-0.2-3.4c0.3-1.5,1.7-2,3.1-2.1c1.3-0.1,1.5,1,1.7,2
		c1.7,12.3,3.4,24.6,5,36.9c0.1,1,0,2,0,2.9C27.7,92,27.4,92,27.1,91.9z"/>
	<path class="st8" d="M53.1,164.8c-0.3,2.8,1,6.4-3,7.9c-4.2,1.7-11.4-0.2-14.3-3.6c-5.8-6.8-3.1-18.7,5-22.4c4.5-2,7.4-1.1,9.1,3.4
		C51.8,154.7,53.2,159.5,53.1,164.8z"/>
	<path class="st9" d="M156.1,101c6.5-6.5,13.4-12.1,22.7-14.5c24-6.3,47.3,13.9,47.2,36.7c0,5.6,0.4,11.3-2.1,16.6
		c-8.6,24.7-35.5,26.9-52.1,19c-12.9-6.1-21.9-15.7-23.3-30.6C147.6,118.4,150.7,109.3,156.1,101z M188,91.8
		c-18.4-0.3-33.3,14.5-33.6,33.5c-0.3,16.4,16.2,31.2,35.2,31.7c17.7,0.4,31.2-12.4,31.4-29.7C221.2,108.4,208.6,91.7,188,91.8z"/>
	<path class="st10" d="M74,160.8c-0.4-3.3-0.8-6.5-1.1-9.8c-1.3-13.3,1.6-25.3,12.6-33.6c11.2-8.5,23.9-10.9,37.5-6.3
		c24.3,7.1,31.3,39.6,20.3,56.3c-7,10.6-17.6,14.7-29.7,15.5C95.6,184.2,82.4,176.6,74,160.8z M110.2,177
		c20.6,0.6,39.8-14.8,30.2-40.5c-4.2-11.3-11.4-19.2-23.5-21.3c-12.4-2.1-23.9,1-32,10.9c-8.2,10.1-9.3,22.1-3.9,33.8
		C86.7,172.4,97.5,177.1,110.2,177z"/>
	<path class="st11" d="M188,91.8c20.6-0.1,33.2,16.6,33,35.5c-0.2,17.3-13.7,30.1-31.4,29.7c-19-0.4-35.5-15.2-35.2-31.7
		C154.7,106.2,169.5,91.4,188,91.8z M179.7,128.4c0-3.5-0.4-6.9-2.2-10.1c-3.7-6.8-9.9-7.1-13.8-0.5c-4.2,7.1-2.8,14.4,0.4,21.4
		c1.5,3.3,4.6,4.4,8.4,3C177.6,140.4,179.7,136.5,179.7,128.4z"/>
	<path class="st12" d="M179.7,128.4c0.1,8.1-2.1,12-7.1,13.8c-3.8,1.4-6.9,0.3-8.4-3c-3.2-6.9-4.6-14.2-0.4-21.4
		c3.9-6.6,10.1-6.3,13.8,0.5C179.2,121.5,179.6,124.9,179.7,128.4z"/>
	<path class="st13" d="M136.9,145.1c0,7.6-2.1,11.7-6.4,12.6c-4.3,0.9-8.7-2.8-11.3-9.5c-2-5-2.7-9.9,0.4-14.8
		c3.8-5.8,10.4-6,14.3-0.3C135.9,136.3,136.9,140.1,136.9,145.1z"/>
</g>
</svg>
